<svg xmlns="http://www.w3.org/2000/svg" width="17.004" height="23.333" viewBox="0 0 17.004 23.333" fill="none">
  <path d="M 15.269 0 C 16.227 0 17.004 0.771 17.004 1.721 L 17.004 2.168 C 17.004 3.118 16.227 3.889 15.269 3.889 L 10.113 3.889 C 10.08 3.889 10.053 3.915 10.053 3.947 L 10.053 23.275 L 10.054 23.274 C 10.054 23.307 10.027 23.333 9.995 23.333 L 5.253 23.333 C 5.22 23.333 5.195 23.306 5.195 23.274 L 5.195 3.947 C 5.194 3.915 5.167 3.889 5.135 3.889 L 0.073 3.889 C 0.027 3.889 -0.002 3.837 0.025 3.799 C 0.076 3.723 0.124 3.644 0.169 3.561 C 0.402 3.127 0.518 2.587 0.518 1.944 C 0.518 1.301 0.398 0.763 0.158 0.329 C 0.112 0.245 0.062 0.166 0.01 0.091 C -0.016 0.052 0.012 0 0.059 0 L 15.269 0 Z" fill="#69AFE8" fill-rule="evenodd"></path>
</svg>