<svg xmlns="http://www.w3.org/2000/svg" width="18.408" height="17.895" viewBox="0 0 18.408 17.895" fill="none">
  <path d="M 9.268 0 C 10.829 0 12.254 0.307 13.544 0.92 L 13.971 1.136 C 14.516 1.431 15.017 1.771 15.475 2.156 L 15.475 2.157 C 15.843 2.63 16.254 3.059 16.709 3.442 C 16.921 3.715 17.12 4 17.303 4.303 C 17.855 5.214 18.221 6.213 18.402 7.301 C 18.413 7.366 18.323 7.395 18.292 7.336 C 18.291 7.335 18.291 7.333 18.29 7.332 C 18.057 6.898 17.743 6.573 17.348 6.356 C 16.953 6.139 16.515 6.031 16.036 6.031 C 15.557 6.031 15.119 6.139 14.724 6.356 C 14.513 6.473 14.325 6.619 14.16 6.797 L 14.161 6.799 C 14.018 6.954 13.891 7.131 13.782 7.333 C 13.696 7.494 13.627 7.669 13.573 7.858 C 13.556 7.918 13.468 7.912 13.459 7.851 C 13.37 7.265 13.205 6.747 12.965 6.299 C 12.583 5.587 12.068 5.054 11.42 4.698 C 10.772 4.342 10.054 4.165 9.268 4.165 C 9.069 4.165 8.875 4.176 8.685 4.198 L 8.685 4.197 C 8.123 4.264 7.601 4.432 7.116 4.697 C 6.469 5.053 5.953 5.586 5.571 6.298 C 5.19 7.009 4.999 7.893 4.999 8.947 C 4.999 10.002 5.196 10.886 5.589 11.598 C 5.982 12.308 6.498 12.842 7.134 13.198 C 7.77 13.554 8.446 13.731 9.233 13.731 C 10.021 13.731 10.738 13.554 11.386 13.198 C 12.034 12.842 12.554 12.315 12.947 11.615 C 13.077 11.385 13.184 11.132 13.271 10.861 C 13.469 10.875 13.672 10.884 13.882 10.889 C 13.928 10.89 13.957 10.837 13.932 10.799 L 13.931 10.798 C 13.957 10.836 13.928 10.889 13.881 10.888 C 13.671 10.884 13.468 10.875 13.271 10.861 C 13.354 10.605 13.417 10.33 13.461 10.037 C 13.471 9.976 13.557 9.97 13.574 10.029 C 13.592 10.088 13.612 10.145 13.632 10.201 C 13.639 10.22 13.646 10.239 13.652 10.258 C 13.662 10.283 13.672 10.309 13.683 10.334 C 13.69 10.351 13.699 10.368 13.706 10.385 C 13.733 10.446 13.761 10.505 13.792 10.563 C 14.033 10.996 14.345 11.322 14.733 11.539 C 15.121 11.756 15.535 11.863 16.015 11.863 C 16.494 11.863 16.932 11.756 17.326 11.539 C 17.721 11.322 18.038 11 18.278 10.573 C 18.285 10.561 18.292 10.55 18.298 10.538 C 18.329 10.48 18.418 10.509 18.407 10.574 C 18.229 11.684 17.861 12.697 17.302 13.61 C 16.48 14.952 15.364 16.002 13.952 16.759 C 12.541 17.516 11.002 17.895 9.267 17.895 C 7.531 17.894 5.965 17.516 4.564 16.759 C 3.165 16.001 2.053 14.952 1.231 13.61 C 0.472 12.37 0.065 10.946 0.008 9.343 L 0 8.947 C 0 7.203 0.412 5.655 1.232 4.302 C 1.534 3.805 1.875 3.349 2.254 2.933 L 2.254 2.932 C 2.908 2.213 3.678 1.614 4.564 1.135 C 5.806 0.463 7.18 0.091 8.685 0.015 L 8.685 0.016 C 8.877 0.006 9.071 0 9.268 0 Z M 15.475 2.156 C 15.93 2.54 16.341 2.968 16.71 3.441 C 16.255 3.058 15.843 2.629 15.475 2.156 Z" fill="#F02D2B" fill-rule="nonzero"></path>
</svg>