<svg xmlns="http://www.w3.org/2000/svg" width="18.410" height="17.896" viewBox="0 0 18.410 17.896" fill="none">
  <path d="M 9.142 0 C 10.878 0 12.445 0.378 13.846 1.136 C 15.245 1.893 16.356 2.943 17.178 4.285 C 17.998 5.627 18.41 7.204 18.41 8.948 C 18.41 10.692 17.998 12.241 17.178 13.594 L 17.123 13.68 L 17.123 13.681 C 16.307 14.993 15.214 16.02 13.845 16.761 C 12.926 17.257 11.936 17.59 10.874 17.761 L 10.868 17.761 C 10.312 17.85 9.738 17.895 9.142 17.896 C 7.407 17.896 5.839 17.516 4.439 16.759 C 3.894 16.464 3.393 16.124 2.935 15.738 C 2.567 15.265 2.156 14.836 1.701 14.453 C 1.489 14.181 1.29 13.895 1.107 13.593 C 0.669 12.871 0.35 12.095 0.145 11.263 L 0.064 10.903 C 0.044 10.802 0.024 10.698 0.007 10.595 C -0.002 10.537 0.065 10.508 0.103 10.541 L 0.117 10.559 C 0.118 10.56 0.118 10.561 0.119 10.563 C 0.152 10.624 0.187 10.683 0.224 10.739 L 0.337 10.903 C 0.536 11.17 0.778 11.383 1.061 11.538 C 1.456 11.755 1.895 11.864 2.374 11.864 C 2.853 11.864 3.29 11.755 3.685 11.538 C 4.081 11.321 4.395 10.996 4.628 10.563 C 4.714 10.402 4.783 10.226 4.837 10.037 C 4.854 9.977 4.942 9.983 4.951 10.045 C 5.04 10.631 5.205 11.148 5.445 11.597 C 5.827 12.308 6.342 12.842 6.99 13.197 C 7.638 13.553 8.356 13.73 9.142 13.73 C 9.929 13.73 10.646 13.553 11.294 13.197 C 11.659 12.997 11.983 12.738 12.264 12.425 C 12.48 12.183 12.672 11.907 12.838 11.598 C 13.207 10.91 13.396 10.062 13.409 9.053 L 17.063 9.053 L 17.064 9.052 L 13.41 9.052 C 13.411 9.017 13.411 8.982 13.411 8.947 C 13.411 7.892 13.214 7.008 12.821 6.297 C 12.428 5.586 11.912 5.053 11.276 4.697 C 10.64 4.342 9.964 4.163 9.177 4.163 C 8.389 4.163 7.672 4.342 7.024 4.697 C 6.377 5.053 5.856 5.581 5.463 6.28 C 5.21 6.729 5.04 7.254 4.949 7.857 C 4.939 7.919 4.852 7.925 4.835 7.865 C 4.779 7.672 4.706 7.495 4.616 7.332 C 4.376 6.898 4.063 6.573 3.675 6.355 C 3.287 6.139 2.873 6.031 2.393 6.031 C 1.914 6.031 1.476 6.139 1.082 6.355 L 1.083 6.356 C 0.789 6.518 0.538 6.738 0.33 7.016 L 0.329 7.016 C 0.258 7.111 0.191 7.212 0.13 7.321 C 0.123 7.333 0.116 7.344 0.11 7.356 C 0.079 7.415 -0.01 7.385 0.001 7.32 C 0.018 7.217 0.036 7.116 0.056 7.016 L 0.057 7.016 C 0.25 6.025 0.6 5.114 1.107 4.285 C 1.928 2.943 3.045 1.893 4.457 1.136 C 5.868 0.378 7.407 0 9.142 0 Z M 1.7 14.454 C 2.155 14.837 2.566 15.266 2.934 15.738 C 2.48 15.355 2.068 14.927 1.7 14.454 Z M 12.259 13.834 C 12.25 13.855 12.229 13.87 12.205 13.87 L 9.372 13.87 C 9.364 13.87 9.356 13.872 9.349 13.875 C 9.355 13.872 9.363 13.871 9.371 13.871 L 12.204 13.871 C 12.229 13.871 12.25 13.856 12.259 13.835 L 12.259 13.834 Z M 17.118 9.088 C 17.121 9.095 17.123 9.102 17.123 9.11 L 17.119 9.088 C 17.116 9.081 17.111 9.075 17.105 9.069 L 17.118 9.088 Z" fill="#F79D39" fill-rule="evenodd"></path>
</svg>