<svg xmlns="http://www.w3.org/2000/svg" width="12.046" height="20.993" viewBox="0 0 12.046 20.993" fill="none">
  <path d="M 7.752 0 C 7.785 0 7.811 0.027 7.811 0.059 L 7.811 4.628 C 7.666 4.861 7.512 5.085 7.35 5.3 C 7.512 5.085 7.666 4.86 7.812 4.627 L 7.812 4.76 C 7.812 4.792 7.838 4.818 7.87 4.818 L 9.896 4.818 C 9.942 4.819 9.97 4.871 9.943 4.909 C 9.894 4.98 9.847 5.055 9.803 5.134 C 9.563 5.561 9.442 6.116 9.442 6.76 C 9.442 7.403 9.56 7.942 9.792 8.375 C 9.838 8.46 9.886 8.541 9.938 8.617 C 9.965 8.655 9.937 8.707 9.89 8.707 L 7.869 8.707 C 7.837 8.707 7.811 8.734 7.811 8.766 L 7.811 14.971 C 7.811 15.499 7.869 16.106 7.984 16.381 C 8.1 16.657 8.314 16.846 8.626 16.949 C 8.938 17.052 9.36 17.104 9.893 17.104 L 10.311 17.104 C 11.269 17.105 12.046 17.874 12.046 18.824 L 12.046 19.272 C 12.046 20.222 11.269 20.993 10.311 20.993 L 8.471 20.993 C 7.267 20.993 6.255 20.856 5.434 20.58 C 4.612 20.304 3.993 19.771 3.576 18.979 C 3.16 18.188 2.952 17.047 2.952 15.556 L 2.952 8.766 C 2.952 8.733 2.926 8.707 2.894 8.707 L 1.567 8.707 C 1.566 8.707 1.563 8.708 1.562 8.708 L 0.059 8.708 C 0.026 8.708 0 8.681 0 8.649 L 0 4.877 C 0 4.845 0.027 4.819 0.059 4.818 L 2.892 4.818 C 2.924 4.818 2.951 4.792 2.951 4.76 L 2.951 0.059 L 2.95 0.059 C 2.95 0.026 2.978 0 3.01 0 L 7.752 0 Z" fill="#776AC1" fill-rule="nonzero"></path>
</svg>