<svg xmlns="http://www.w3.org/2000/svg" width="12.147" height="20.989" viewBox="0 0 12.147 20.989" fill="none">
  <path d="M 7.752 0 C 7.785 0 7.811 0.027 7.811 0.059 L 7.811 4.762 C 7.811 4.794 7.837 4.819 7.869 4.819 L 8.368 4.819 C 8.297 4.914 8.231 5.016 8.17 5.125 C 8.163 5.137 8.156 5.148 8.15 5.16 C 8.135 5.189 8.106 5.196 8.081 5.188 C 8.106 5.197 8.136 5.19 8.152 5.161 C 8.159 5.149 8.165 5.137 8.172 5.126 C 8.233 5.017 8.299 4.915 8.371 4.819 L 10.412 4.819 C 11.018 4.819 11.551 5.128 11.861 5.595 C 11.877 5.621 11.894 5.648 11.909 5.675 C 12.059 5.946 12.138 6.28 12.147 6.674 L 12.147 6.832 C 12.138 7.225 12.061 7.559 11.916 7.829 C 11.869 7.916 11.817 7.996 11.761 8.069 L 11.76 8.069 C 11.577 8.293 11.339 8.471 11.065 8.581 C 10.863 8.657 10.645 8.695 10.413 8.695 L 10.414 8.696 C 10.647 8.696 10.864 8.657 11.067 8.581 C 10.866 8.663 10.644 8.708 10.412 8.708 L 8.377 8.708 C 8.298 8.602 8.225 8.489 8.159 8.367 C 8.159 8.366 8.158 8.365 8.157 8.363 C 8.153 8.356 8.148 8.35 8.143 8.345 C 8.148 8.349 8.152 8.355 8.156 8.362 C 8.157 8.364 8.158 8.365 8.158 8.366 C 8.225 8.489 8.298 8.602 8.376 8.707 L 7.867 8.707 C 7.835 8.707 7.809 8.734 7.809 8.766 L 7.809 11.021 C 7.735 10.986 7.661 10.952 7.586 10.919 C 7.661 10.952 7.735 10.986 7.809 11.021 L 7.809 14.971 C 7.809 15.499 7.867 16.107 7.982 16.382 C 8.067 16.584 8.207 16.74 8.398 16.849 L 8.398 16.85 C 8.417 16.86 8.424 16.879 8.425 16.897 L 8.425 16.898 L 8.426 16.9 L 8.425 16.9 C 8.424 16.913 8.42 16.926 8.411 16.937 C 8.281 17.079 8.166 17.24 8.064 17.421 C 7.825 17.848 7.705 18.391 7.705 19.048 C 7.705 19.511 7.766 19.919 7.887 20.273 C 7.89 20.283 7.893 20.293 7.896 20.303 C 7.903 20.322 7.91 20.34 7.917 20.358 C 7.927 20.384 7.938 20.41 7.948 20.436 C 7.98 20.515 8.015 20.591 8.054 20.664 C 8.098 20.746 8.146 20.825 8.196 20.899 C 8.222 20.938 8.192 20.991 8.146 20.989 C 7.936 20.985 7.733 20.976 7.536 20.963 C 7.619 20.706 7.681 20.432 7.726 20.139 C 7.728 20.123 7.735 20.111 7.745 20.103 L 7.778 20.089 C 7.753 20.091 7.729 20.108 7.725 20.139 C 7.68 20.431 7.618 20.706 7.535 20.962 C 6.731 20.907 6.029 20.78 5.43 20.579 C 4.608 20.303 3.99 19.77 3.573 18.979 C 3.157 18.187 2.948 17.046 2.948 15.555 L 2.948 14.299 L 2.949 14.298 L 2.949 10.116 L 2.951 10.115 L 2.951 8.767 C 2.951 8.734 2.924 8.708 2.892 8.708 L 0.059 8.708 C 0.026 8.708 0 8.681 0 8.649 L 0 4.877 C 0 4.845 0.027 4.819 0.059 4.818 L 2.892 4.818 C 2.924 4.818 2.951 4.792 2.951 4.76 L 2.951 0.059 C 2.951 0.026 2.978 0 3.01 0 L 7.752 0 Z M 7.55 17.182 C 7.574 17.26 7.596 17.34 7.616 17.421 C 7.596 17.34 7.574 17.26 7.55 17.182 Z M 7.229 16.398 C 7.259 16.455 7.289 16.513 7.316 16.571 C 7.289 16.513 7.26 16.456 7.229 16.399 C 7.182 16.311 7.132 16.225 7.08 16.142 L 7.079 16.141 C 7.131 16.224 7.181 16.31 7.229 16.398 Z M 6.454 10.506 C 6.518 10.524 6.581 10.544 6.644 10.563 C 6.581 10.544 6.518 10.524 6.454 10.506 Z M 5.665 10.31 C 5.742 10.325 5.819 10.342 5.896 10.359 C 5.819 10.342 5.742 10.325 5.665 10.31 Z M 3.533 10.102 C 4.152 10.102 4.749 10.151 5.325 10.247 C 4.75 10.151 4.152 10.102 3.534 10.102 L 3.533 10.102 Z" fill="#3CB648" fill-rule="nonzero"></path>
</svg>