<svg xmlns="http://www.w3.org/2000/svg" width="3.469" height="3.876" viewBox="0 0 3.469 3.876" fill="none">
  <path d="M 3.083 3.25 C 3.139 3.176 3.191 3.096 3.238 3.009 C 3.384 2.739 3.46 2.406 3.469 2.013 L 3.469 1.854 C 3.46 1.46 3.382 1.127 3.232 0.855 C 3.216 0.828 3.2 0.801 3.184 0.775 C 2.874 0.308 2.34 0 1.734 0 L 1.535 0 C 1.299 0.025 1.078 0.094 0.875 0.205 C 0.612 0.349 0.4 0.564 0.24 0.848 C 0.08 1.133 0 1.494 0 1.933 C 0 2.371 0.078 2.72 0.233 3.009 C 0.388 3.298 0.597 3.516 0.86 3.66 C 1.124 3.805 1.415 3.876 1.735 3.876 C 1.968 3.876 2.186 3.838 2.388 3.761 C 2.661 3.651 2.899 3.474 3.082 3.25 L 3.083 3.25 Z" fill="#C46102" fill-rule="nonzero"></path>
</svg>