<svg xmlns="http://www.w3.org/2000/svg" width="3.464" height="3.888" viewBox="0 0 3.464 3.888" fill="none">
  <path d="M 2.604 0.217 C 2.604 0.217 2.599 0.215 2.597 0.213 C 2.338 0.072 2.053 0.002 1.739 0 C 1.424 0.001 1.136 0.074 0.875 0.217 C 0.612 0.361 0.4 0.576 0.24 0.86 C 0.08 1.145 0 1.506 0 1.944 C 0 2.383 0.076 2.721 0.226 3.007 C 0.228 3.012 0.23 3.017 0.233 3.021 C 0.393 3.31 0.602 3.527 0.861 3.672 C 0.863 3.673 0.865 3.674 0.867 3.675 C 1.126 3.816 1.412 3.887 1.725 3.888 C 2.04 3.887 2.328 3.815 2.589 3.672 C 2.852 3.527 3.064 3.312 3.224 3.028 C 3.384 2.744 3.464 2.382 3.464 1.944 C 3.464 1.505 3.388 1.168 3.238 0.881 C 3.236 0.876 3.234 0.871 3.231 0.866 C 3.071 0.577 2.862 0.361 2.603 0.216 L 2.604 0.217 Z" fill="#297328" fill-rule="nonzero"></path>
</svg>