<svg xmlns="http://www.w3.org/2000/svg" width="3.471" height="3.888" viewBox="0 0 3.471 3.888" fill="none">
  <path d="M 2.603 0.217 C 2.344 0.072 2.06 0 1.749 0 C 1.439 0 1.138 0.072 0.874 0.217 C 0.611 0.361 0.399 0.576 0.239 0.86 C 0.08 1.145 0 1.506 0 1.944 C 0 2.383 0.078 2.732 0.233 3.021 C 0.388 3.31 0.597 3.528 0.86 3.672 C 1.124 3.817 1.415 3.888 1.735 3.888 C 2.056 3.888 2.346 3.816 2.61 3.672 C 2.874 3.528 3.083 3.31 3.238 3.021 C 3.394 2.732 3.471 2.373 3.471 1.944 C 3.471 1.516 3.391 1.157 3.231 0.868 C 3.071 0.579 2.862 0.362 2.603 0.217 L 2.603 0.217 Z" fill="#0039E1" fill-rule="nonzero"></path>
</svg>